<svg width="47" height="45" viewBox="0 0 47 45" fill="none" xmlns="http://www.w3.org/2000/svg">
<ellipse cx="23.031" cy="22.5" rx="23.031" ry="22.5" fill="url(#paint0_linear_2_275)"/>
<path fill-rule="evenodd" clip-rule="evenodd" d="M13.467 22.4863C16.0843 19.0906 19.6314 17 23.5428 17C27.4542 17 31.0012 19.0906 33.6186 22.4904C33.8322 22.7686 33.8322 23.1573 33.6186 23.4355C31.0012 26.8312 27.4542 28.9219 23.5428 28.9219C19.6314 28.9219 16.0843 26.8312 13.467 23.4314C13.2534 23.1532 13.2534 22.7645 13.467 22.4863ZM23.6853 26.1245C25.4047 26.1245 26.7986 24.7627 26.7986 23.083C26.7986 21.4032 25.4047 20.0415 23.6853 20.0415C21.9659 20.0415 20.5721 21.4032 20.5721 23.083C20.5721 24.7627 21.9659 26.1245 23.6853 26.1245Z" fill="white"/>
<defs>
<linearGradient id="paint0_linear_2_275" x1="0" y1="0" x2="44.9878" y2="46.0494" gradientUnits="userSpaceOnUse">
<stop stop-color="#FFD900"/>
<stop offset="1" stop-color="#DD71C6"/>
</linearGradient>
</defs>
</svg>
