<svg width="587" height="583" viewBox="0 0 587 583" fill="none" xmlns="http://www.w3.org/2000/svg">
<mask id="mask0_2_33" style="mask-type:alpha" maskUnits="userSpaceOnUse" x="0" y="0" width="587" height="575">
<rect x="0.00390625" y="0.929443" width="586.193" height="574.07" fill="#F9F9FC"/>
</mask>
<g mask="url(#mask0_2_33)">
<mask id="mask1_2_33" style="mask-type:alpha" maskUnits="userSpaceOnUse" x="6" y="129" width="286" height="573">
<rect x="6.06548" y="129.944" width="285.736" height="571.473" fill="#C4C4C4"/>
</mask>
<g mask="url(#mask1_2_33)">
<path fill-rule="evenodd" clip-rule="evenodd" d="M291.802 701.417C449.61 701.417 577.538 573.488 577.538 415.68C577.538 257.872 449.61 129.944 291.802 129.944C133.994 129.944 6.06548 257.872 6.06548 415.68C6.06548 573.488 133.994 701.417 291.802 701.417ZM291.802 643.725C417.748 643.725 519.847 541.626 519.847 415.68C519.847 289.735 417.748 187.635 291.802 187.635C165.856 187.635 63.7571 289.735 63.7571 415.68C63.7571 541.626 165.856 643.725 291.802 643.725Z" fill="#FFD900"/>
</g>
<mask id="mask2_2_33" style="mask-type:alpha" maskUnits="userSpaceOnUse" x="291" y="129" width="287" height="573">
<rect width="285.736" height="571.473" transform="matrix(-1 0 0 1 577.538 129.944)" fill="#F9F9FC"/>
</mask>
<g mask="url(#mask2_2_33)">
<path fill-rule="evenodd" clip-rule="evenodd" d="M291.802 701.417C133.994 701.417 6.06543 573.488 6.06543 415.68C6.06543 257.872 133.994 129.944 291.802 129.944C449.61 129.944 577.538 257.872 577.538 415.68C577.538 573.488 449.61 701.417 291.802 701.417ZM291.803 643.725C165.857 643.725 63.7577 541.626 63.7577 415.68C63.7577 289.735 165.857 187.635 291.803 187.635C417.748 187.635 519.847 289.735 519.847 415.68C519.847 541.626 417.748 643.725 291.803 643.725Z" fill="#F9F9F9"/>
</g>
<mask id="mask3_2_33" style="mask-type:alpha" maskUnits="userSpaceOnUse" x="6" y="129" width="572" height="573">
<path fill-rule="evenodd" clip-rule="evenodd" d="M291.801 701.417C133.993 701.417 6.06476 573.488 6.06476 415.68C6.06476 257.872 133.993 129.944 291.801 129.944C449.609 129.944 577.538 257.872 577.538 415.68C577.538 573.488 449.609 701.417 291.801 701.417ZM291.8 643.725C165.854 643.725 63.7551 541.626 63.7551 415.68C63.7551 289.735 165.854 187.635 291.8 187.635C417.746 187.635 519.845 289.735 519.845 415.68C519.845 541.626 417.746 643.725 291.8 643.725Z" fill="#F9F9FC"/>
</mask>
<g mask="url(#mask3_2_33)">
<g style="mix-blend-mode:multiply" filter="url(#filter0_f_2_33)">
<path d="M237.685 150.292C238.724 144.75 233.789 128.356 231.191 120.852L340.29 126.048C342.022 132.974 346.265 148.041 349.382 152.889C353.278 158.95 390.078 171.939 403.066 178C413.456 182.848 420.383 220.427 422.548 238.61L393.974 255.062L146.336 249.001C149.222 238.466 156.293 213.933 161.489 200.079C167.983 182.762 192.227 180.164 200.886 178C209.544 175.835 236.386 157.219 237.685 150.292Z" fill="#303030" fill-opacity="0.15"/>
</g>
</g>
</g>
<defs>
<filter id="filter0_f_2_33" x="111.336" y="85.8523" width="346.212" height="204.209" filterUnits="userSpaceOnUse" color-interpolation-filters="sRGB">
<feFlood flood-opacity="0" result="BackgroundImageFix"/>
<feBlend mode="normal" in="SourceGraphic" in2="BackgroundImageFix" result="shape"/>
<feGaussianBlur stdDeviation="17.5" result="effect1_foregroundBlur_2_33"/>
</filter>
</defs>
</svg>
