<svg width="45" height="45" viewBox="0 0 45 45" fill="none" xmlns="http://www.w3.org/2000/svg">
<circle cx="22.5" cy="22.5" r="22.5" fill="#FFD900"/>
<path d="M30.0444 30.7L25.0444 18V14H25.5444C25.8444 14 26.0444 13.8 26.0444 13.5V12.5C26.0444 12.2 25.8444 12 25.5444 12H18.5444C18.2444 12 18.0444 12.2 18.0444 12.5V13.5C18.0444 13.8 18.2444 14 18.5444 14H19.0444V18L14.0444 30.7C13.8444 31.3 14.3444 32 15.0444 32H29.0444C29.7444 32 30.2444 31.3 30.0444 30.7ZM18.4444 26L21.0444 18.4V14H23.0444V18.4L25.6444 26H18.4444Z" fill="white"/>
</svg>
