<svg width="138" height="63" viewBox="0 0 138 63" fill="none" xmlns="http://www.w3.org/2000/svg">
<circle cx="117.258" cy="20.7423" r="20.7423" fill="#A4E7ED"/>
<circle cx="26.6687" cy="20.7423" r="20.7423" fill="#73C3F4"/>
<circle cx="21.8712" cy="48.681" r="13.4049" fill="#DD71C6"/>
<circle cx="8.32515" cy="38.5214" r="8.32515" fill="#FFD900"/>
<path d="M23.8269 38.5861C23.9307 38.2877 24.0015 37.9789 24.0381 37.6651C24.0381 37.6651 25.0678 38.6622 25.5742 40.5601C26.0805 42.458 26.6614 43.115 27.5482 43.9475C28.435 44.78 31.1204 46.4977 33.8943 49.6227C36.6107 52.6885 40.1612 56.8556 40.2901 57.0063C40.2031 56.8277 37.3609 51.0453 35.8016 48.9595C34.2189 46.841 33.082 45.0595 31.5693 44.3467C30.0565 43.6338 28.9196 41.8523 28.9289 39.052C28.9383 36.2517 27.4581 35.0729 26.5557 34.5479C25.6534 34.023 22.85 31.5224 24.3254 27.7141C25.8009 23.9058 33.2793 21.2655 35.185 20.7576C37.0907 20.2498 41.3633 18.7991 41.3633 18.7991C41.3633 18.7991 36.9944 19.001 34.2935 19.9329C31.636 20.8446 28.6835 21.5855 28.5919 21.6088C28.6385 21.5591 29.5098 20.5713 29.2737 19.5897C29.1806 19.1366 28.9224 18.7344 28.5493 18.4611C28.1761 18.1878 27.7147 18.0631 27.2547 18.1111C26.5433 18.2105 26.3414 18.3379 26.3103 18.3612C26.3989 18.2649 27.8635 16.7816 28.7721 16.1868C29.6807 15.5919 30.7275 14.5762 31.0754 13.9751C31.0754 13.9751 27.5342 15.9383 26.082 16.7832C24.6299 17.6281 22.996 18.9312 21.3046 21.163C19.6132 23.3949 19.3166 25.709 19.6536 27.9083C19.9906 30.1075 20.9878 31.5675 21.4055 32.372C21.8233 33.1765 22.2039 34.5976 21.6929 35.3447C21.1819 36.0917 19.3212 38.4696 19.2001 40.484C19.0789 42.4984 19.9223 43.9522 20.9334 45.2568C21.9445 46.5614 24.0397 50.4256 25.5229 54.2494C27.0062 58.0733 27.8945 58.7535 27.8945 58.7535C27.8945 58.7535 26.6691 50.7425 25.7202 48.5028C24.7712 46.2632 23.5209 43.7006 23.2351 43.3775C22.9494 43.0544 22.0703 42.062 22.5999 41.0043C23.1295 39.9466 23.6343 39.1918 23.8269 38.5861ZM23.1885 23.4554C23.1885 23.4554 23.1357 21.747 24.1204 20.8664C24.1204 20.8664 24.3456 22.2797 25.731 22.5204C25.7341 22.5204 24.1282 23.3498 23.1885 23.4554Z" fill="#4D85B0"/>
<path d="M39.3147 33.3554C39.1175 31.5755 38.9109 29.8438 38.6935 28.2099C38.476 26.576 38.2182 25.0275 37.9169 23.6375L37.8765 23.4526H35.9351L35.8652 23.552C35.3838 24.237 34.8945 24.9499 34.4115 25.6752C33.9285 26.4005 33.4408 27.1631 32.95 27.9552C32.4592 28.7473 31.9513 29.5875 31.4341 30.4619C30.9169 31.3364 30.3702 32.276 29.8018 33.2576L29.5952 33.6101H32.0321L32.0973 33.4859C32.3132 33.0821 32.5275 32.6876 32.7372 32.3117L33.2917 31.3162H36.895C36.9245 31.6128 36.954 31.9157 36.9819 32.2279C37.0176 32.613 37.0472 33.0044 37.0689 33.3896L37.0813 33.6101H39.338L39.3147 33.3554ZM34.3292 29.454C34.7376 28.7488 35.1306 28.0965 35.5018 27.5125C35.801 27.0383 36.0827 26.5962 36.3467 26.1862C36.415 26.6925 36.4787 27.191 36.5346 27.6772C36.6061 28.2767 36.6651 28.8731 36.7117 29.454H34.3292Z" fill="#FFD900"/>
<path d="M51.7225 27.2965C52.0147 26.8425 52.1704 26.3143 52.1714 25.7745C52.1894 25.3321 52.0629 24.896 51.8111 24.5319C51.5791 24.2171 51.275 23.9625 50.9242 23.7895C50.5556 23.6094 50.16 23.4909 49.7532 23.4385C49.3447 23.3805 48.9326 23.3515 48.52 23.3516C48.0447 23.3516 47.5648 23.3702 47.0942 23.4075C46.6367 23.4436 46.1821 23.5105 45.7336 23.6078L45.5923 23.6404L43.2471 33.3972L43.4769 33.4485C43.9511 33.553 44.4323 33.6225 44.9167 33.6566C45.4479 33.7001 45.9604 33.7218 46.4388 33.7218C48.0913 33.7218 49.3788 33.4112 50.2672 32.79C51.1836 32.1501 51.648 31.2368 51.648 30.0673C51.6558 29.6238 51.5237 29.1891 51.2706 28.8248C51.1036 28.5915 50.8925 28.3931 50.6493 28.2408C51.0828 28.0244 51.4527 27.699 51.7225 27.2965ZM48.756 27.3354C48.4959 27.3887 48.231 27.4153 47.9655 27.4146H46.914L47.4266 25.2992C47.526 25.2899 47.6409 25.279 47.7714 25.2712C47.9795 25.2573 48.1938 25.2542 48.4004 25.251C48.808 25.2325 49.2145 25.3058 49.5901 25.4654C49.7454 25.5399 49.9426 25.6906 49.9426 26.1379C49.9501 26.3339 49.8999 26.5278 49.7982 26.6955C49.6916 26.8568 49.5512 26.993 49.3866 27.0946C49.1925 27.2119 48.9789 27.2934 48.756 27.3354ZM49.163 31.0194C49.0075 31.2279 48.804 31.3957 48.5697 31.5086C48.3034 31.6334 48.0195 31.7162 47.7279 31.754C47.4191 31.7969 47.1077 31.8192 46.796 31.8208C46.5413 31.8208 46.3052 31.8208 46.0971 31.8006L45.8532 31.782L46.4745 29.2379H47.8847C48.4485 29.2379 48.8492 29.3342 49.076 29.5253C49.1794 29.6092 49.2621 29.7156 49.3179 29.8366C49.3736 29.9575 49.4008 30.0895 49.3975 30.2226C49.4085 30.5067 49.3262 30.7866 49.163 31.0194Z" fill="#FFD900"/>
<path d="M58.7566 26.2635C58.3232 25.8597 57.7144 25.6547 56.9487 25.6547C56.2924 25.6457 55.6434 25.7931 55.0554 26.0849C54.5036 26.364 54.0143 26.7524 53.6172 27.2265C53.2178 27.7086 52.9098 28.2597 52.7087 28.8526C52.5017 29.4607 52.3968 30.0989 52.398 30.7412C52.3954 31.1381 52.4562 31.533 52.5782 31.9107C52.6976 32.289 52.9014 32.6351 53.1743 32.923C53.4471 33.2109 53.7818 33.433 54.1531 33.5726C54.6098 33.7426 55.0947 33.8243 55.582 33.8133C56.0705 33.8209 56.5582 33.7687 57.0341 33.658C57.374 33.5812 57.7062 33.4736 58.0266 33.3365L58.1819 33.2666L57.994 31.4199L57.7051 31.538C57.1313 31.7805 56.5155 31.9076 55.8926 31.9123C54.6858 31.9123 54.5227 31.3438 54.5165 30.9012C55.0477 30.8779 55.5788 30.8344 56.0976 30.7676C56.6596 30.7016 57.209 30.5541 57.7284 30.3296C58.199 30.1245 58.6127 29.8078 58.9336 29.4071C59.2706 28.9532 59.4407 28.3969 59.4151 27.8322C59.4239 27.5388 59.3697 27.247 59.2561 26.9764C59.1425 26.7058 58.9721 26.4627 58.7566 26.2635ZM56.6956 27.506C56.958 27.506 57.1413 27.5573 57.2298 27.652C57.3195 27.7458 57.3701 27.8702 57.3712 27.9999C57.3712 28.3758 57.1724 28.6414 56.7499 28.8371C56.3275 29.0328 55.6348 29.1586 54.7106 29.2083C54.7661 29.0341 54.8378 28.8657 54.925 28.705C55.0494 28.4714 55.2063 28.2565 55.3909 28.0667C55.5644 27.8927 55.7687 27.7526 55.9935 27.6536C56.2146 27.5556 56.4538 27.5053 56.6956 27.506Z" fill="#FFD900"/>
<path d="M61.9596 30.9075C61.9436 31.0196 61.9353 31.1327 61.9348 31.246C61.9343 31.34 61.9442 31.4338 61.9643 31.5256C61.9769 31.5909 62.0069 31.6515 62.0512 31.7011C62.1109 31.7619 62.1845 31.8072 62.2656 31.8331C62.4162 31.8804 62.5738 31.9015 62.7315 31.8953C62.9556 31.896 63.1787 31.8662 63.3947 31.8067C63.5948 31.7521 63.7914 31.6851 63.9833 31.6064L64.2753 31.4837L64.4462 33.3241L64.2909 33.3909C64.0169 33.5054 63.7344 33.5983 63.446 33.6689C63.0513 33.7633 62.6465 33.8082 62.2407 33.8025C61.3787 33.8025 60.7435 33.6021 60.3552 33.2077C59.9669 32.8132 59.7712 32.2758 59.7712 31.6095C59.7717 31.3673 59.7888 31.1255 59.8225 30.8857C59.8607 30.6218 59.9126 30.36 59.9778 30.1014L61.4424 23.9354L63.7053 23.5767L63.1571 25.8349H65.552L65.1032 27.6987H62.7067L62.0544 30.4198C62.0062 30.6124 61.9767 30.777 61.9596 30.9075Z" fill="#FFD900"/>
<path d="M67.5678 30.9089C67.5526 31.0217 67.5443 31.1353 67.543 31.2491C67.5433 31.3425 67.5532 31.4356 67.5725 31.5271C67.5857 31.5921 67.6157 31.6526 67.6595 31.7026C67.72 31.763 67.794 31.8082 67.8754 31.8346C68.026 31.8819 68.1836 31.9029 68.3413 31.8967C68.5659 31.8976 68.7895 31.8678 69.006 31.8082C69.2057 31.7535 69.4017 31.6866 69.5931 31.6078L69.8867 31.4851L70.0575 33.3256L69.9022 33.3939C69.6273 33.5071 69.3444 33.5995 69.0557 33.6704C68.6616 33.7648 68.2573 33.8097 67.8521 33.804C66.9885 33.804 66.3548 33.6036 65.9666 33.2091C65.5783 32.8146 65.381 32.2772 65.3826 31.6109C65.383 31.3688 65.4002 31.127 65.4338 30.8872C65.4721 30.6232 65.5239 30.3614 65.5891 30.1028L67.0538 23.9369L69.3151 23.5781L68.7669 25.8348H71.1602L70.7129 27.6986H68.3149L67.6579 30.415C67.616 30.6138 67.5849 30.7785 67.5678 30.9089Z" fill="#FFD900"/>
<path d="M77.2904 26.268C77.0676 26.0619 76.8026 25.9066 76.5139 25.8129C76.1812 25.7061 75.8335 25.6537 75.4841 25.6576C74.8268 25.6486 74.1768 25.796 73.5878 26.0878C73.0355 26.3676 72.5461 26.7571 72.1496 27.2325C71.7495 27.7145 71.4411 28.2656 71.2394 28.8586C71.0319 29.466 70.9269 30.1038 70.9288 30.7457C70.926 31.1432 70.9869 31.5385 71.109 31.9168C71.229 32.2947 71.433 32.6405 71.7058 32.9283C71.9785 33.2161 72.3129 33.4385 72.6838 33.5786C73.1406 33.7486 73.6255 33.8303 74.1127 33.8193C74.6013 33.8262 75.0889 33.774 75.5649 33.664C75.9045 33.586 76.2366 33.4785 76.5574 33.3425L76.7127 33.2726L76.5185 31.426L76.2296 31.5456C75.6561 31.7868 75.0409 31.9134 74.4187 31.9183C73.2119 31.9183 73.0488 31.3499 73.0426 30.9072C73.5753 30.8855 74.105 30.8404 74.6222 30.7736C75.184 30.7087 75.7334 30.5622 76.2529 30.3388C76.7265 30.1348 77.1433 29.8187 77.4675 29.4178C77.8047 28.965 77.9758 28.41 77.9521 27.846C77.9615 27.5509 77.9074 27.2572 77.7932 26.9849C77.679 26.7126 77.5075 26.4681 77.2904 26.268ZM75.2294 27.5105C75.4904 27.5105 75.6752 27.5618 75.7622 27.6658C75.8532 27.7588 75.9045 27.8836 75.905 28.0137C75.905 28.388 75.7062 28.6552 75.2838 28.8509C74.8613 29.0466 74.1686 29.1646 73.2368 29.2127C73.2918 29.039 73.3636 28.871 73.4511 28.7111C73.575 28.4766 73.7319 28.2611 73.917 28.0712C74.0903 27.8977 74.2941 27.7577 74.5181 27.6581C74.742 27.5588 74.9845 27.5085 75.2294 27.5105Z" fill="#FFD900"/>
<path d="M84.3329 26.035L83.6961 27.8708L83.4771 27.7947C83.2925 27.7305 83.1029 27.6817 82.9103 27.6487C82.6724 27.6119 82.4318 27.5948 82.1911 27.5974C82.0327 27.5983 81.8745 27.6091 81.7174 27.63C81.6219 27.6417 81.527 27.6583 81.4332 27.6797L80.0152 33.6251H77.8408L79.6207 26.2322L79.7434 26.1903C80.1694 26.0503 80.6029 25.9341 81.0418 25.8424C81.5444 25.737 82.0566 25.685 82.5701 25.6871C82.6928 25.6871 82.8264 25.6948 82.9739 25.7088C83.1215 25.7228 83.2566 25.7399 83.3948 25.7585C83.5331 25.7772 83.6744 25.8051 83.7955 25.8331C83.9121 25.8598 84.026 25.8972 84.1357 25.9449L84.3329 26.035Z" fill="#FFD900"/>
<path d="M50.7165 36.3726L50.5845 36.6941C49.8499 38.4896 49.0966 40.2104 48.3449 41.8195C47.5932 43.4285 46.7918 44.9708 45.9469 46.4245L45.8801 46.541H43.8315L43.802 46.3422C43.7274 45.839 43.656 45.3436 43.5861 44.859C43.5162 44.3744 43.451 43.8727 43.3919 43.3773C43.3329 42.8818 43.2755 42.3662 43.2242 41.8475C43.1978 41.5757 43.1698 41.2914 43.145 40.9994C42.6868 41.8366 42.2318 42.6535 41.7876 43.4363C41.2191 44.4396 40.6072 45.4554 39.9704 46.4354L39.9021 46.541H37.8473L37.8286 46.3298C37.7556 45.5206 37.7028 44.7021 37.6733 43.8976C37.6438 43.0931 37.6267 42.2652 37.6267 41.4265C37.6267 39.8983 37.6795 38.2752 37.782 36.5994L37.796 36.3804H40.0263L40.0108 36.6289C39.9549 37.5251 39.9067 38.4212 39.871 39.2894C39.8353 40.1576 39.8151 41.06 39.8151 41.9577V42.9719C39.8151 43.0496 39.8151 43.1272 39.8151 43.2064C39.9704 42.9362 40.1412 42.6597 40.3043 42.3786C40.6149 41.8552 40.9163 41.3194 41.2145 40.782C41.5127 40.2446 41.8046 39.6948 42.0889 39.1636C42.3731 38.6325 42.6418 38.1059 42.8934 37.6105L42.9586 37.4831H44.8612L44.8721 37.7037C44.9 38.2069 44.9358 38.7381 44.9761 39.2786C45.0165 39.8191 45.0678 40.3751 45.1221 40.9171C45.1765 41.4592 45.234 41.995 45.2899 42.5169C45.3147 42.756 45.3411 42.9828 45.366 43.2142C45.5213 42.9129 45.6766 42.593 45.8319 42.2683C46.1115 41.6766 46.3942 41.06 46.6706 40.4341C46.9471 39.8082 47.2282 39.145 47.4953 38.488C47.7625 37.831 48.0249 37.1725 48.2719 36.5264L48.3294 36.3711L50.7165 36.3726Z" fill="#FFD900"/>
<path d="M55.8693 39.1775C55.4344 38.7737 54.8256 38.5687 54.0599 38.5687C53.4025 38.5602 52.7525 38.7082 52.1635 39.0005C51.6118 39.2797 51.1229 39.6687 50.7269 40.1436C50.3268 40.6253 50.0188 41.1765 49.8183 41.7697C49.6107 42.3771 49.5057 43.0149 49.5077 43.6568C49.5049 44.0542 49.5657 44.4496 49.6878 44.8278C49.8073 45.2057 50.0108 45.5517 50.283 45.8397C50.5552 46.1278 50.8891 46.3505 51.2596 46.4912C51.7167 46.6599 52.2014 46.7411 52.6885 46.7304C53.178 46.7372 53.6667 46.6851 54.1438 46.5751C54.4836 46.4974 54.8158 46.3893 55.1362 46.2521L55.2915 46.1837L55.1021 44.3355L54.8132 44.4551C54.2394 44.6976 53.6235 44.8248 53.0007 44.8294C51.7939 44.8294 51.6308 44.2609 51.6246 43.8183C52.1558 43.795 52.6869 43.75 53.2041 43.6847C53.7664 43.6178 54.3162 43.4703 54.8365 43.2467C55.3099 43.0426 55.7263 42.7259 56.0495 42.3242C56.3875 41.869 56.5576 41.311 56.5309 40.7446C56.539 40.4513 56.4842 40.1597 56.37 39.8893C56.2559 39.619 56.0852 39.3763 55.8693 39.1775ZM53.8083 40.42C54.0692 40.42 54.254 40.4713 54.3426 40.5754C54.4327 40.6688 54.4833 40.7934 54.4839 40.9233C54.4839 41.2976 54.2851 41.5647 53.8626 41.7604C53.4402 41.9561 52.7475 42.0819 51.8249 42.1316C51.8798 41.9575 51.9511 41.789 52.0377 41.6284C52.1618 41.3945 52.3187 41.1795 52.5037 40.99C52.6774 40.8161 52.8817 40.6755 53.1063 40.5754C53.3267 40.4747 53.566 40.4218 53.8083 40.42Z" fill="#FFD900"/>
<path d="M61.0775 36.7067C61.0826 36.8982 61.046 37.0886 60.9701 37.2646C60.8942 37.4406 60.7808 37.5978 60.6379 37.7255C60.3721 37.9752 60.021 38.1141 59.6563 38.1138C59.3647 38.1193 59.0805 38.022 58.8534 37.8389C58.7295 37.7356 58.6317 37.6045 58.5677 37.4564C58.5038 37.3083 58.4755 37.1473 58.4853 36.9862C58.4802 36.7949 58.5159 36.6046 58.5901 36.4281C58.6643 36.2517 58.7752 36.093 58.9155 35.9627C59.1762 35.7058 59.5279 35.5623 59.894 35.5636C60.189 35.5599 60.4759 35.66 60.7047 35.8462C60.8295 35.9508 60.9281 36.083 60.9928 36.2324C61.0575 36.3818 61.0865 36.5442 61.0775 36.7067Z" fill="#FFD900"/>
<path d="M60.456 38.7524L58.5813 46.5336H56.41L58.2847 38.7524H60.456Z" fill="#FFD900"/>
<path d="M68.1594 39.1155C67.7945 38.9214 67.4023 38.7837 66.9961 38.7071C66.606 38.6282 66.2091 38.5871 65.8111 38.5844C65.1038 38.5761 64.4011 38.6999 63.7392 38.9494C63.1397 39.1771 62.5924 39.5237 62.1301 39.9682C61.6809 40.4092 61.3272 40.9378 61.0911 41.5214C60.8423 42.1408 60.7172 42.803 60.723 43.4705C60.723 44.2626 60.9436 44.9103 61.3769 45.3949C61.8102 45.8795 62.4905 46.1373 63.3773 46.1373C63.6797 46.1384 63.9806 46.0949 64.2704 46.0084C64.3636 45.9804 64.4536 45.9509 64.5391 45.9198C64.4365 46.2761 64.2395 46.5981 63.9691 46.8517C63.6584 47.1282 63.1925 47.268 62.5712 47.268C62.2081 47.273 61.846 47.2286 61.4949 47.1359C61.2085 47.0592 60.9333 46.9454 60.6764 46.7974L60.4497 46.6622L59.656 48.4716L59.847 48.5741C60.1931 48.7528 60.5576 48.8929 60.9342 48.9919C61.3908 49.1088 61.8608 49.1652 62.3321 49.1597C62.9439 49.1719 63.5542 49.0934 64.143 48.9267C64.6181 48.7869 65.0588 48.5493 65.4368 48.2293C65.7957 47.9125 66.0846 47.5242 66.2848 47.0893C66.5072 46.6062 66.6789 46.1013 66.7973 45.5828L68.3209 39.1979L68.1594 39.1155ZM63.7936 44.3046C63.4488 44.3046 63.2173 44.2207 63.0853 44.0468C62.9257 43.8031 62.8494 43.5143 62.8679 43.2236C62.8652 42.8579 62.9311 42.4949 63.062 42.1535C63.186 41.8319 63.37 41.5367 63.6041 41.2837C63.8464 41.0235 64.1407 40.8171 64.4679 40.6779C64.7952 40.5388 65.148 40.47 65.5036 40.4761C65.6189 40.4762 65.7341 40.484 65.8484 40.4994L65.0252 43.9163C64.8604 44.0298 64.6806 44.1197 64.4909 44.1834C64.2669 44.2628 64.0312 44.3037 63.7936 44.3046Z" fill="#FFD900"/>
<path d="M75.7218 41.1816C75.7184 41.6302 75.66 42.0767 75.5479 42.5111L74.5818 46.5337H72.4074L73.3564 42.5809C73.4014 42.3728 73.448 42.1538 73.4946 41.9302C73.5362 41.7393 73.558 41.5447 73.5599 41.3493C73.569 41.1217 73.4994 40.8978 73.3626 40.7156C73.2182 40.5293 72.8765 40.4904 72.6156 40.4904C72.4412 40.4908 72.2671 40.5059 72.0953 40.5355C71.9694 40.5588 71.853 40.5836 71.7458 40.6116L70.348 46.5337H68.1736L70.8139 35.5204L73.0737 35.1616L72.2195 38.7338L72.4696 38.6841C72.6978 38.6398 72.9297 38.6174 73.1623 38.6173C73.5509 38.6088 73.9376 38.6736 74.3023 38.8084C74.6096 38.9255 74.8867 39.1102 75.113 39.3489C75.3299 39.5865 75.4893 39.8708 75.5789 40.1798C75.6763 40.5047 75.7245 40.8424 75.7218 41.1816Z" fill="#FFD900"/>
<path d="M78.6929 44.207L78.6727 44.4571C78.6102 45.2489 78.3877 46.0197 78.0188 46.7231C77.6552 47.43 77.214 48.0942 76.7033 48.7034L76.6024 48.8214L74.9607 48.3073L75.1253 48.0495C75.4835 47.4868 75.7808 46.8875 76.0122 46.2618C76.2374 45.6715 76.3785 45.0525 76.4315 44.4229L76.4486 44.207H78.6929Z" fill="#FFD900"/>
<path d="M86.3048 36.373L83.8711 46.5337H81.6299L84.0636 36.373H86.3048Z" fill="#FFD900"/>
<path d="M93.1171 41.1534C93.1161 41.3728 93.0989 41.5919 93.0659 41.8088C93.0332 42.0324 92.9929 42.2639 92.9447 42.4999L91.9771 46.5381H89.8027L90.7346 42.5869C90.7796 42.385 90.8262 42.1753 90.8728 41.9656C90.9147 41.776 90.9412 41.5833 90.952 41.3894C90.9699 41.1548 90.905 40.9212 90.7688 40.7294C90.6538 40.574 90.3867 40.4995 89.9922 40.4995C89.7098 40.4956 89.428 40.5238 89.152 40.5834L87.7386 46.5427H85.5642L87.3426 39.1172L87.4715 39.0784C87.8489 38.965 88.2869 38.8578 88.7714 38.7584C89.3049 38.6527 89.8475 38.6006 90.3914 38.6031C91.3124 38.6031 92.0035 38.8376 92.4493 39.3036C92.895 39.7695 93.1171 40.3861 93.1171 41.1534Z" fill="#FFD900"/>
<path d="M100.614 39.0488L99.8233 40.8303L99.6105 40.7355C99.4396 40.662 99.2636 40.6008 99.084 40.5523C98.8568 40.4972 98.6235 40.4717 98.3897 40.4762C98.0507 40.4711 97.7153 40.5467 97.4113 40.6967C97.1233 40.8412 96.8701 41.0462 96.6689 41.2978C96.4551 41.572 96.2935 41.8831 96.192 42.2157C96.0767 42.5873 96.0191 42.9744 96.0212 43.3634C96.019 43.5675 96.0425 43.771 96.0911 43.9692C96.1298 44.1318 96.2017 44.2846 96.3023 44.418C96.4023 44.5458 96.5356 44.6436 96.6875 44.7007C96.9059 44.7797 97.1372 44.8166 97.3693 44.8094C97.6571 44.81 97.9436 44.7702 98.2204 44.6914C98.4387 44.6343 98.6509 44.5563 98.8541 44.4584L99.1647 44.3031L99.3558 46.1948L99.2082 46.2647C98.9207 46.3942 98.6224 46.4981 98.3167 46.5753C97.9037 46.684 97.4779 46.7362 97.0509 46.7306C96.5671 46.7408 96.0859 46.6564 95.6345 46.4821C95.2512 46.33 94.9057 46.0963 94.6218 45.7972C94.3504 45.5033 94.1469 45.1533 94.0254 44.7721C93.898 44.3704 93.8351 43.951 93.839 43.5296C93.8355 42.8871 93.9405 42.2486 94.1497 41.641C94.3486 41.0603 94.6553 40.5223 95.0536 40.0553C95.4532 39.5933 95.9474 39.2226 96.5027 38.9681C97.1134 38.6949 97.7767 38.5592 98.4456 38.5705C98.7964 38.5682 99.1465 38.6004 99.4909 38.6668C99.8041 38.7287 100.109 38.8256 100.401 38.9556L100.614 39.0488Z" fill="#FFD900"/>
<path d="M44.1921 51.7363C44.2449 51.8326 44.3055 51.9507 44.3738 52.0904C44.4422 52.2318 44.5136 52.384 44.5882 52.5486C44.6627 52.7133 44.7357 52.8794 44.8087 53.0518C44.8817 53.2242 44.9485 53.3842 45.0137 53.5349L45.2187 53.0518C45.2917 52.8794 45.3647 52.7117 45.4393 52.5486C45.5138 52.3855 45.5837 52.238 45.6536 52.0904C45.7235 51.9429 45.781 51.8326 45.8338 51.7363H46.455C46.4846 51.9367 46.511 52.1603 46.5358 52.4088C46.5607 52.6573 46.5824 52.9152 46.601 53.1854C46.6197 53.4557 46.6383 53.7228 46.6538 53.993C46.6694 54.2633 46.6834 54.5164 46.6942 54.7556H46.0326C46.0248 54.4621 46.0124 54.1421 45.9984 53.7973C45.9844 53.4525 45.9627 53.1031 45.9332 52.7521C45.8804 52.8748 45.8229 53.0083 45.7577 53.1575C45.6925 53.3066 45.6303 53.4525 45.5682 53.6016C45.5061 53.7507 45.4455 53.8905 45.3865 54.0257L45.2312 54.372H44.7559L44.6084 54.0257C44.5493 53.89 44.4888 53.7487 44.4266 53.6016C44.363 53.4463 44.3008 53.305 44.2356 53.1575L44.0617 52.7521C44.0327 53.1031 44.0109 53.4515 43.9964 53.7973C43.9825 54.1421 43.97 54.4621 43.9623 54.7556H43.2991C43.3115 54.5164 43.3255 54.2633 43.341 53.993C43.3565 53.7228 43.3752 53.4541 43.3938 53.1854C43.4125 52.9167 43.4342 52.6589 43.459 52.4088C43.4839 52.1588 43.5103 51.9429 43.5398 51.7363H44.1921Z" fill="#55A301"/>
<path d="M47.1431 53.6263C47.1393 53.4439 47.1709 53.2624 47.2363 53.0921C47.2919 52.9497 47.3759 52.8202 47.4833 52.7115C47.5823 52.6108 47.7014 52.532 47.8327 52.4801C47.9624 52.4292 48.1004 52.4028 48.2396 52.4025C48.3828 52.3944 48.526 52.4169 48.6599 52.4683C48.7938 52.5197 48.9152 52.5989 49.0162 52.7007C49.2205 52.9456 49.3218 53.2601 49.2989 53.5782C49.2989 53.6155 49.2989 53.6574 49.2989 53.7024C49.2989 53.7475 49.2989 53.7863 49.2896 53.822H47.8187C47.825 53.8843 47.845 53.9445 47.8772 53.9982C47.9094 54.0519 47.9531 54.0978 48.0051 54.1327C48.1371 54.2176 48.2925 54.2589 48.4493 54.2507C48.5671 54.2508 48.6846 54.2399 48.8003 54.2181C48.8968 54.2019 48.9911 54.1748 49.0814 54.1373L49.1684 54.6638C49.1238 54.6862 49.0769 54.7039 49.0286 54.7166C48.9649 54.7354 48.9 54.7504 48.8345 54.7617C48.759 54.7765 48.6828 54.7873 48.6062 54.7943C48.5252 54.8036 48.4438 54.8083 48.3623 54.8083C48.179 54.8119 47.9967 54.7808 47.825 54.7166C47.682 54.6617 47.5527 54.5764 47.446 54.4666C47.345 54.3587 47.2691 54.2298 47.2239 54.0892C47.1725 53.9402 47.1452 53.7839 47.1431 53.6263ZM48.6668 53.3778C48.6633 53.3252 48.6539 53.2731 48.6388 53.2225C48.6237 53.1713 48.5984 53.1238 48.5643 53.0827C48.5298 53.0411 48.4869 53.0073 48.4384 52.9833C48.3793 52.9554 48.3143 52.9421 48.249 52.9445C48.1845 52.9433 48.1205 52.9555 48.061 52.9802C48.0111 53.0039 47.9666 53.0377 47.9306 53.0796C47.8955 53.1213 47.8686 53.1693 47.8514 53.221C47.8324 53.2713 47.8184 53.3233 47.8094 53.3763L48.6668 53.3778Z" fill="#55A301"/>
<path d="M51.818 54.6796C51.7606 54.6967 51.6938 54.7138 51.6177 54.7293C51.5416 54.7448 51.4623 54.7588 51.38 54.7712C51.2977 54.7836 51.2138 54.7914 51.1284 54.7992C51.043 54.8069 50.9607 54.81 50.8815 54.81C50.7097 54.8126 50.5388 54.7847 50.3767 54.7277C50.2362 54.6766 50.1084 54.5955 50.0024 54.4901C49.8991 54.3833 49.8196 54.2557 49.7694 54.1158C49.7132 53.9573 49.6859 53.79 49.6887 53.6219C49.6864 53.4516 49.7099 53.2819 49.7586 53.1187C49.7996 52.9799 49.8677 52.8505 49.9589 52.7382C50.0451 52.6338 50.1547 52.5513 50.2789 52.4974C50.4162 52.4407 50.5636 52.4127 50.7122 52.4151C50.7937 52.4144 50.875 52.4233 50.9545 52.4415C51.0281 52.4596 51.0998 52.4846 51.1688 52.5161V51.4801L51.818 51.3745V54.6796ZM50.3503 53.5924C50.3418 53.7638 50.3893 53.9333 50.4854 54.0754C50.5321 54.1364 50.5931 54.1848 50.663 54.2165C50.7329 54.2483 50.8095 54.2622 50.8861 54.2571C50.9436 54.2571 50.998 54.2571 51.0414 54.2571C51.0849 54.2571 51.1315 54.2478 51.1626 54.2416V53.0612C51.1142 53.0321 51.0619 53.0101 51.0073 52.996C50.9424 52.9787 50.8756 52.9699 50.8085 52.9696C50.503 52.9654 50.3503 53.1725 50.3503 53.5908V53.5924Z" fill="#55A301"/>
<path d="M53.1365 51.8016C53.1394 51.854 53.1306 51.9065 53.1107 51.9551C53.0908 52.0037 53.0604 52.0473 53.0216 52.0827C52.9465 52.1488 52.8498 52.1852 52.7498 52.1852C52.6497 52.1852 52.5531 52.1488 52.478 52.0827C52.4035 52.0082 52.3616 51.907 52.3616 51.8016C52.3616 51.6962 52.4035 51.595 52.478 51.5205C52.5531 51.4544 52.6497 51.418 52.7498 51.418C52.8498 51.418 52.9465 51.4544 53.0216 51.5205C53.0604 51.5559 53.0908 51.5995 53.1107 51.6481C53.1306 51.6967 53.1394 51.7491 53.1365 51.8016ZM53.076 54.7526H52.4236V52.4632H53.0728L53.076 54.7526Z" fill="#55A301"/>
<path d="M53.5791 53.608C53.5783 53.4492 53.6051 53.2916 53.6584 53.142C53.7085 52.9986 53.7882 52.8672 53.8923 52.7565C53.9963 52.6457 54.1225 52.558 54.2625 52.499C54.4193 52.4333 54.588 52.401 54.758 52.4043C54.8706 52.4033 54.9831 52.4142 55.0934 52.4369C55.1951 52.4585 55.2944 52.4897 55.3901 52.5301L55.255 53.0488C55.1895 53.0242 55.1226 53.0035 55.0546 52.9867C54.9746 52.9691 54.8927 52.9608 54.8108 52.9619C54.7303 52.9556 54.6495 52.9686 54.575 52.9996C54.5005 53.0307 54.4344 53.0789 54.3821 53.1405C54.283 53.275 54.233 53.4395 54.2408 53.6064C54.23 53.7766 54.2765 53.9456 54.3728 54.0863C54.4321 54.1486 54.5051 54.1962 54.5859 54.2256C54.6667 54.255 54.7533 54.2652 54.8387 54.2556C54.923 54.2548 55.0072 54.2475 55.0903 54.2339C55.1758 54.2213 55.2594 54.1978 55.3388 54.164L55.4305 54.6952C55.3395 54.7326 55.2447 54.7602 55.1478 54.7775C55.0246 54.802 54.8992 54.8139 54.7735 54.8132C54.589 54.8177 54.4054 54.786 54.233 54.72C54.0917 54.6633 53.9645 54.5763 53.8603 54.4653C53.7621 54.3552 53.6894 54.2247 53.6475 54.0832C53.6011 53.9291 53.578 53.7689 53.5791 53.608Z" fill="#55A301"/>
<path d="M56.5767 52.4028C56.7392 52.3987 56.9012 52.4208 57.0567 52.4681C57.174 52.5035 57.2808 52.5676 57.3673 52.6544C57.4431 52.7388 57.4965 52.8408 57.5226 52.9511C57.5563 53.0777 57.5725 53.2083 57.5707 53.3394V54.689C57.4776 54.7092 57.3486 54.7325 57.184 54.7605C56.9851 54.7902 56.7841 54.8037 56.583 54.8009C56.4473 54.8024 56.312 54.7894 56.1791 54.762C56.0685 54.7397 55.963 54.6965 55.8685 54.6347C55.7828 54.5756 55.7137 54.4953 55.6682 54.4017C55.6185 54.2904 55.5946 54.1694 55.5983 54.0476C55.5945 53.9295 55.6224 53.8126 55.679 53.709C55.7311 53.6179 55.8054 53.5415 55.8949 53.4869C55.9907 53.4292 56.0958 53.3887 56.2055 53.3673C56.3245 53.3422 56.4458 53.3297 56.5674 53.33C56.6421 53.3293 56.7168 53.333 56.7911 53.3409C56.8434 53.3467 56.8953 53.356 56.9464 53.3689V53.3083C56.9487 53.2596 56.9411 53.2109 56.924 53.1653C56.907 53.1196 56.8807 53.0779 56.847 53.0427C56.748 52.9651 56.6227 52.9289 56.4975 52.9418C56.3884 52.9422 56.2794 52.9505 56.1714 52.9666C56.0767 52.9796 55.9836 53.0019 55.8934 53.0334L55.811 52.5115C55.8575 52.4966 55.9046 52.4842 55.9524 52.4743C56.0083 52.4618 56.0704 52.4494 56.1372 52.4401C56.204 52.4308 56.2739 52.4199 56.3484 52.4137C56.4243 52.406 56.5005 52.4024 56.5767 52.4028ZM56.6295 54.3008C56.6932 54.3008 56.7538 54.3008 56.8128 54.3008C56.8591 54.2992 56.9052 54.2951 56.951 54.2883V53.7913C56.9246 53.7913 56.8858 53.7805 56.8346 53.7742C56.7866 53.7683 56.7384 53.7652 56.6901 53.7649C56.6325 53.7653 56.5749 53.7689 56.5177 53.7758C56.4687 53.7822 56.421 53.7963 56.3764 53.8177C56.3361 53.8364 56.3022 53.8665 56.279 53.9044C56.2558 53.9423 56.2443 53.9861 56.2459 54.0305C56.2414 54.0718 56.2486 54.1135 56.2667 54.1509C56.2849 54.1883 56.3132 54.2198 56.3484 54.2417C56.4353 54.2858 56.5323 54.3062 56.6295 54.3008Z" fill="#55A301"/>
<path d="M59.0758 54.7976C58.9208 54.7996 58.7664 54.7786 58.6176 54.7355C58.5133 54.7068 58.4174 54.6536 58.338 54.5802C58.2695 54.5118 58.2211 54.4258 58.1983 54.3317C58.1727 54.2244 58.1607 54.1143 58.1625 54.004V51.4801L58.8102 51.3745V53.8704C58.8096 53.9225 58.8143 53.9745 58.8242 54.0257C58.8304 54.0687 58.8475 54.1093 58.8739 54.1437C58.9022 54.1789 58.9391 54.2062 58.981 54.223C59.0406 54.2459 59.1036 54.259 59.1674 54.2618L59.0758 54.7976Z" fill="#55A301"/>
<path d="M62.6544 52.0576C62.6886 52.1772 62.7274 52.3108 62.7693 52.4615C62.8113 52.6121 62.8563 52.7643 62.9045 52.9274C62.9526 53.0905 63.0008 53.2474 63.0489 53.4073C63.097 53.5673 63.1467 53.718 63.1933 53.8515C63.2306 53.6962 63.2694 53.5409 63.3083 53.3669C63.3471 53.193 63.3859 53.0128 63.4201 52.828C63.4543 52.6432 63.49 52.4568 63.5226 52.272C63.5552 52.0872 63.5878 51.9101 63.6173 51.7393H64.3225C64.2189 52.2445 64.1014 52.7566 63.9699 53.2753C63.8384 53.7941 63.6945 54.288 63.5381 54.757H62.9169C62.8144 54.4774 62.7165 54.1854 62.6202 53.8795C62.5239 53.5735 62.4307 53.266 62.3376 52.9585C62.2444 53.2691 62.1527 53.5797 62.0596 53.8795C61.9664 54.1792 61.8685 54.4774 61.7676 54.757H61.1463C60.991 54.29 60.8476 53.7961 60.7161 53.2753C60.5846 52.7545 60.4671 52.2425 60.3635 51.7393H61.0997C61.1292 51.9101 61.1603 52.0887 61.196 52.272C61.2317 52.4553 61.2674 52.6416 61.3047 52.828C61.342 53.0144 61.3808 53.193 61.4212 53.3669C61.4616 53.5409 61.5004 53.7024 61.5408 53.8515C61.5936 53.7086 61.6449 53.558 61.6961 53.398C61.7474 53.238 61.7924 53.0781 61.839 52.9196C61.8856 52.7612 61.9291 52.609 61.9679 52.4537C62.0067 52.2984 62.0425 52.1741 62.0751 52.0576H62.6544Z" fill="#55A301"/>
<path d="M64.4576 53.6264C64.4537 53.4439 64.4854 53.2625 64.5508 53.0921C64.6069 52.9501 64.6908 52.8207 64.7977 52.7116C64.8973 52.6108 65.0169 52.532 65.1487 52.4802C65.2783 52.429 65.4163 52.4027 65.5556 52.4025C65.6988 52.3944 65.8421 52.4168 65.976 52.4682C66.1098 52.5196 66.2313 52.5988 66.3322 52.7007C66.5365 52.9456 66.6378 53.2602 66.6149 53.5782C66.6149 53.6155 66.6149 53.6574 66.6149 53.7025C66.6149 53.7475 66.6149 53.7863 66.6071 53.8221H65.1348C65.1413 53.8845 65.1616 53.9447 65.1941 53.9983C65.2266 54.052 65.2705 54.0979 65.3227 54.1327C65.4546 54.2178 65.6101 54.2591 65.7669 54.2507C65.8841 54.2508 66.0011 54.2399 66.1163 54.2181C66.2128 54.202 66.3071 54.1749 66.3975 54.1374L66.4844 54.6639C66.4398 54.6863 66.3929 54.704 66.3446 54.7167C66.2814 54.7354 66.2171 54.7505 66.1521 54.7617C66.0806 54.7752 66.0045 54.786 65.9237 54.7943C65.8428 54.8036 65.7614 54.8083 65.6799 54.8083C65.4961 54.8121 65.3132 54.781 65.141 54.7167C64.998 54.6618 64.8687 54.5765 64.762 54.4666C64.661 54.3588 64.5851 54.2299 64.5399 54.0892C64.4887 53.9401 64.4609 53.784 64.4576 53.6264ZM65.9812 53.3779C65.9785 53.3251 65.9691 53.2729 65.9533 53.2226C65.9381 53.1717 65.9133 53.1243 65.8803 53.0828C65.8448 53.0415 65.8015 53.0077 65.7529 52.9834C65.6938 52.9553 65.6288 52.9419 65.5634 52.9445C65.4995 52.9432 65.436 52.9554 65.377 52.9803C65.3266 53.0031 65.282 53.0371 65.2466 53.0797C65.2105 53.1209 65.183 53.169 65.1658 53.221C65.1475 53.2715 65.1335 53.3235 65.1239 53.3763L65.9812 53.3779Z" fill="#55A301"/>
<path d="M67.8189 51.8016C67.8218 51.854 67.813 51.9065 67.7931 51.9551C67.7732 52.0037 67.7428 52.0473 67.704 52.0827C67.6289 52.1488 67.5322 52.1852 67.4322 52.1852C67.3322 52.1852 67.2355 52.1488 67.1604 52.0827C67.0859 52.0082 67.044 51.907 67.044 51.8016C67.044 51.6962 67.0859 51.595 67.1604 51.5205C67.2355 51.4544 67.3322 51.418 67.4322 51.418C67.5322 51.418 67.6289 51.4544 67.704 51.5205C67.7428 51.5559 67.7732 51.5995 67.7931 51.6481C67.813 51.6967 67.8218 51.7491 67.8189 51.8016ZM67.7584 54.7526H67.1091V52.4632H67.7584V54.7526Z" fill="#55A301"/>
<path d="M70.3453 54.4668C70.3453 54.8406 70.2506 55.1181 70.0611 55.2993C69.8716 55.4805 69.5776 55.5716 69.1789 55.5726C69.0388 55.5725 68.899 55.5601 68.7611 55.5353C68.6295 55.5125 68.4997 55.4798 68.3729 55.4375L68.4862 54.8923C68.5897 54.9342 68.6968 54.9664 68.8062 54.9886C68.9321 55.013 69.0601 55.0244 69.1883 55.0228C69.2585 55.03 69.3295 55.023 69.397 55.0022C69.4646 54.9814 69.5272 54.9472 69.5812 54.9017C69.6595 54.8176 69.7014 54.7059 69.6977 54.591V54.5087C69.6285 54.5402 69.5561 54.5641 69.4818 54.5802C69.4021 54.5967 69.3209 54.6051 69.2395 54.605C69.1052 54.6134 68.9708 54.5926 68.8453 54.5441C68.7198 54.4956 68.6063 54.4204 68.5126 54.3239C68.3333 54.1027 68.2435 53.8222 68.261 53.538C68.2577 53.3792 68.284 53.2212 68.3387 53.0721C68.3886 52.9386 68.4664 52.8173 68.567 52.7164C68.6726 52.6157 68.7979 52.5379 68.9351 52.4881C69.0932 52.4326 69.2599 52.4053 69.4274 52.4073C69.5051 52.4073 69.5828 52.4073 69.6682 52.4182C69.7536 52.4291 69.8344 52.4353 69.9151 52.4477C69.9959 52.4601 70.0704 52.4726 70.1481 52.4881C70.2257 52.5036 70.2879 52.5207 70.3453 52.5393V54.4668ZM68.9227 53.5349C68.9227 53.8973 69.0692 54.0785 69.3622 54.0785C69.4253 54.0795 69.4882 54.0706 69.5486 54.0521C69.6026 54.0381 69.6547 54.0178 69.7039 53.9915V52.9556C69.6713 52.9556 69.634 52.9447 69.5905 52.9401C69.5388 52.9373 69.4869 52.9373 69.4352 52.9401C69.3623 52.9345 69.2891 52.9471 69.2222 52.9766C69.1552 53.0061 69.0966 53.0517 69.0516 53.1093C68.964 53.2337 68.9188 53.3829 68.9227 53.5349Z" fill="#55A301"/>
<path d="M70.9559 54.7541V51.4801L71.6051 51.3745V52.4726C71.7231 52.4342 71.846 52.4132 71.9701 52.4105C72.1288 52.406 72.2869 52.4319 72.436 52.4866C72.5514 52.5318 72.6531 52.6062 72.7311 52.7024C72.8072 52.7996 72.8603 52.9127 72.8864 53.0333C72.9188 53.1733 72.9344 53.3167 72.933 53.4604V54.7541H72.2838V53.5396C72.2957 53.387 72.2679 53.234 72.203 53.0954C72.1696 53.0488 72.1244 53.012 72.0719 52.9888C72.0195 52.9655 71.9618 52.9568 71.9048 52.9634C71.8501 52.9636 71.7955 52.9688 71.7418 52.9789L71.6051 53.0115V54.7541H70.9559Z" fill="#55A301"/>
<path d="M73.4964 51.8931L74.1456 51.7891V52.4631H74.9222V53.0036H74.1456V53.8081C74.1401 53.9218 74.1647 54.0348 74.2171 54.1359C74.2502 54.1798 74.2944 54.2142 74.3451 54.2355C74.3959 54.2568 74.4514 54.2642 74.5059 54.257C74.5784 54.2571 74.6507 54.2503 74.7218 54.2368C74.7913 54.2253 74.8594 54.2071 74.9253 54.1824L75.0154 54.6888C74.9305 54.7224 74.8433 54.7499 74.7544 54.7711C74.6387 54.7963 74.5203 54.8077 74.4019 54.8053C74.2521 54.8101 74.1029 54.7859 73.9623 54.7338C73.8541 54.6918 73.7584 54.6229 73.6843 54.5335C73.6117 54.443 73.5616 54.3365 73.5383 54.2228C73.5093 54.0897 73.4952 53.9537 73.4964 53.8175V51.8931Z" fill="#55A301"/>
<path d="M78.5572 54.1701V54.7541H76.5381V51.7363H77.2168V54.1701H78.5572Z" fill="#55A301"/>
<path d="M81.0912 53.6048C81.0927 53.7725 81.0665 53.9394 81.0136 54.0987C80.9651 54.2403 80.8879 54.3703 80.7868 54.4807C80.6872 54.5874 80.5659 54.6716 80.4311 54.7277C80.1345 54.8436 79.8052 54.8436 79.5086 54.7277C79.3741 54.672 79.2532 54.5877 79.1545 54.4807C79.052 54.3706 78.9732 54.2405 78.9231 54.0987C78.8663 53.9403 78.8385 53.773 78.8407 53.6048C78.8386 53.4369 78.867 53.2701 78.9246 53.1124C78.9767 52.9713 79.057 52.8424 79.1607 52.7335C79.2614 52.6281 79.3831 52.5451 79.5179 52.4896C79.6607 52.4307 79.8139 52.4012 79.9683 52.4026C80.1243 52.4012 80.279 52.4307 80.4234 52.4896C80.5574 52.5447 80.6782 52.6279 80.7775 52.7335C80.8797 52.8427 80.9585 52.9716 81.0089 53.1124C81.0653 53.2704 81.0931 53.4371 81.0912 53.6048ZM80.4296 53.6048C80.4385 53.4384 80.3968 53.2733 80.31 53.1311C80.2722 53.076 80.221 53.0314 80.1612 53.0015C80.1015 52.9716 80.0351 52.9574 79.9683 52.9602C79.9011 52.9575 79.8343 52.9717 79.7741 53.0015C79.7138 53.0314 79.662 53.0759 79.6235 53.1311C79.5355 53.2728 79.4932 53.4382 79.5024 53.6048C79.4937 53.7723 79.5359 53.9385 79.6235 54.0816C79.6613 54.1378 79.7128 54.1834 79.7731 54.2141C79.8335 54.2448 79.9007 54.2596 79.9683 54.2571C80.0355 54.2597 80.1023 54.2449 80.1622 54.2141C80.222 54.1834 80.2729 54.1377 80.31 54.0816C80.3963 53.938 80.438 53.7721 80.4296 53.6048Z" fill="#55A301"/>
<path d="M82.2443 54.288C82.3297 54.2932 82.4153 54.281 82.4959 54.2523C82.5206 54.2401 82.541 54.2206 82.5544 54.1965C82.5677 54.1723 82.5733 54.1446 82.5704 54.1172C82.5679 54.0879 82.5576 54.0599 82.5407 54.0359C82.5238 54.0119 82.5008 53.9928 82.4741 53.9805C82.3816 53.9277 82.2844 53.8835 82.1837 53.8485C82.0812 53.8097 81.9896 53.7708 81.9072 53.7305C81.8294 53.6936 81.7581 53.6443 81.696 53.5845C81.6368 53.5278 81.5907 53.4589 81.5609 53.3826C81.5265 53.2919 81.5102 53.1953 81.5128 53.0983C81.5097 53.0006 81.5298 52.9035 81.5714 52.815C81.6129 52.7265 81.6748 52.649 81.7519 52.5889C81.9439 52.455 82.1752 52.3894 82.4089 52.4025C82.5434 52.402 82.6776 52.4145 82.8096 52.4398C82.9151 52.4579 83.019 52.4843 83.1202 52.519L83.0084 53.0253C82.9274 52.9976 82.845 52.9742 82.7615 52.9555C82.6635 52.934 82.5635 52.9236 82.4633 52.9244C82.2598 52.9244 82.1526 52.9819 82.1526 53.0952C82.1526 53.1186 82.1568 53.1417 82.1651 53.1636C82.1768 53.1878 82.1951 53.2083 82.2179 53.2226C82.2518 53.2462 82.2877 53.267 82.325 53.2847C82.3701 53.3065 82.4275 53.3298 82.4959 53.3562C82.6172 53.3989 82.735 53.4509 82.8485 53.5115C82.9303 53.5541 83.0048 53.6097 83.069 53.6761C83.1213 53.733 83.16 53.8009 83.1824 53.8749C83.2055 53.9567 83.2165 54.0415 83.215 54.1265C83.2202 54.2267 83.1996 54.3264 83.1549 54.4162C83.1103 54.506 83.0433 54.5828 82.9603 54.6391C82.7428 54.7677 82.4918 54.8283 82.2396 54.813C82.0688 54.8168 81.8981 54.7991 81.7317 54.7602C81.6364 54.7385 81.543 54.7094 81.4522 54.6732L81.5609 54.1467C81.6708 54.19 81.784 54.2243 81.8995 54.2492C82.0127 54.2742 82.1283 54.2873 82.2443 54.288Z" fill="#55A301"/>
<path d="M84.3595 54.2882C84.4454 54.2932 84.5315 54.2811 84.6127 54.2524C84.6374 54.2402 84.6578 54.2207 84.6711 54.1966C84.6845 54.1724 84.6901 54.1448 84.6872 54.1173C84.6847 54.0881 84.6744 54.06 84.6575 54.036C84.6406 54.012 84.6176 53.9929 84.5909 53.9806C84.4978 53.9279 84.4001 53.8837 84.2989 53.8486C84.198 53.8098 84.1048 53.771 84.0225 53.7306C83.9451 53.6929 83.8738 53.6437 83.8113 53.5846C83.7531 53.5271 83.7071 53.4584 83.6761 53.3827C83.6425 53.2918 83.6262 53.1954 83.628 53.0985C83.6251 53.0006 83.6454 52.9034 83.6873 52.8149C83.7291 52.7263 83.7913 52.649 83.8687 52.589C84.0605 52.4547 84.292 52.389 84.5257 52.4027C84.6602 52.4022 84.7943 52.4146 84.9264 52.4399C85.0319 52.4582 85.1357 52.4847 85.237 52.5191L85.1237 53.0255C85.0433 52.9975 84.9613 52.9741 84.8783 52.9556C84.7803 52.9341 84.6803 52.9237 84.5801 52.9245C84.3766 52.9245 84.2694 52.982 84.2694 53.0953C84.2684 53.1188 84.2726 53.1421 84.2819 53.1637C84.2935 53.1879 84.3119 53.2084 84.3347 53.2227C84.3678 53.2467 84.4032 53.2675 84.4403 53.2848C84.4853 53.3066 84.5428 53.3299 84.6127 53.3563C84.7338 53.3993 84.8517 53.4513 84.9652 53.5116C85.0471 53.5543 85.1216 53.6098 85.1858 53.6762C85.237 53.7339 85.2756 53.8016 85.2992 53.875C85.3223 53.9568 85.3333 54.0416 85.3318 54.1266C85.337 54.2268 85.3163 54.3266 85.2717 54.4163C85.2271 54.5061 85.16 54.5829 85.0771 54.6392C84.8596 54.7677 84.6086 54.8283 84.3564 54.8131C84.1856 54.817 84.0149 54.7992 83.8485 54.7603C83.7528 54.7383 83.6588 54.7092 83.5674 54.6733L83.6761 54.1468C83.7865 54.1903 83.9003 54.2246 84.0163 54.2493C84.129 54.2744 84.244 54.2874 84.3595 54.2882Z" fill="#55A301"/>
<path d="M88.2785 54.8147C87.7892 54.8147 87.4149 54.6781 87.1587 54.4047C86.9024 54.1313 86.7719 53.7446 86.7719 53.243C86.7685 53.0149 86.8086 52.7882 86.89 52.5751C86.9631 52.3904 87.0736 52.2227 87.2146 52.0828C87.3524 51.9448 87.5189 51.8387 87.7023 51.7721C87.8989 51.7011 88.1067 51.6658 88.3157 51.6681C88.4323 51.6672 88.5487 51.6765 88.6636 51.696C88.7566 51.712 88.8484 51.7338 88.9386 51.7613C89.0054 51.7824 89.0707 51.8078 89.1342 51.8374C89.1855 51.8638 89.2243 51.884 89.2476 51.8995L89.0519 52.4477C88.9486 52.3942 88.8398 52.352 88.7273 52.3219C88.5902 52.2848 88.4485 52.267 88.3064 52.2691C88.2006 52.2683 88.0954 52.2862 87.9958 52.3219C87.8955 52.3559 87.8046 52.4128 87.7302 52.4881C87.6475 52.5736 87.5839 52.6758 87.5438 52.7879C87.4951 52.9302 87.472 53.0801 87.4755 53.2305C87.474 53.3619 87.4891 53.4928 87.5205 53.6204C87.5475 53.7331 87.5978 53.8389 87.6681 53.931C87.74 54.0202 87.8321 54.091 87.9368 54.1376C88.0632 54.1918 88.2 54.2177 88.3375 54.2137C88.4263 54.214 88.515 54.2083 88.6031 54.1966C88.6807 54.1842 88.7584 54.1702 88.8112 54.1546C88.8643 54.1405 88.9162 54.1223 88.9665 54.1003L89.0923 54.0444L89.2802 54.588C89.1529 54.6582 89.0165 54.7105 88.8749 54.7433C88.6799 54.7925 88.4795 54.8165 88.2785 54.8147Z" fill="#55A301"/>
<path d="M89.5189 53.6264C89.5148 53.4438 89.547 53.2622 89.6137 53.0921C89.6692 52.9501 89.7527 52.8208 89.8591 52.7116C89.9587 52.6108 90.0782 52.532 90.2101 52.4802C90.3397 52.429 90.4777 52.4027 90.617 52.4025C90.7602 52.3944 90.9034 52.4168 91.0373 52.4682C91.1712 52.5196 91.2926 52.5988 91.3936 52.7007C91.5978 52.9456 91.6992 53.2602 91.6762 53.5782C91.6762 53.6155 91.6762 53.6574 91.6762 53.7025C91.6762 53.7475 91.6762 53.7863 91.6685 53.8221H90.1961C90.203 53.8844 90.2234 53.9444 90.2558 53.9981C90.2883 54.0517 90.332 54.0977 90.384 54.1327C90.516 54.2178 90.6714 54.2591 90.8282 54.2507C90.9455 54.2509 91.0625 54.24 91.1777 54.2181C91.2742 54.2022 91.3685 54.1751 91.4588 54.1374L91.5458 54.6639C91.5016 54.686 91.4553 54.7037 91.4075 54.7167C91.3437 54.7353 91.2789 54.7503 91.2134 54.7617C91.142 54.7752 91.0659 54.786 90.9851 54.7943C90.9041 54.8036 90.8227 54.8083 90.7413 54.8083C90.5574 54.8119 90.3746 54.7808 90.2023 54.7167C90.0596 54.6622 89.9307 54.5768 89.8249 54.4666C89.7228 54.3596 89.6468 54.2304 89.6028 54.0892C89.5503 53.9404 89.522 53.7841 89.5189 53.6264ZM91.0441 53.3779C91.0408 53.3251 91.0309 53.2729 91.0146 53.2226C90.9994 53.1717 90.9747 53.1243 90.9416 53.0828C90.9062 53.0415 90.8629 53.0077 90.8142 52.9834C90.7552 52.9553 90.6901 52.9419 90.6248 52.9445C90.5608 52.9435 90.4974 52.9557 90.4384 52.9803C90.3879 53.0031 90.3433 53.0371 90.3079 53.0797C90.2718 53.1209 90.2444 53.169 90.2272 53.221C90.2089 53.2715 90.1949 53.3235 90.1852 53.3763L91.0441 53.3779Z" fill="#55A301"/>
<path d="M92.1717 52.5485C92.3115 52.5097 92.4537 52.4796 92.5972 52.4584C92.7791 52.4298 92.963 52.4158 93.1471 52.4165C93.3119 52.4122 93.4761 52.438 93.6316 52.4926C93.7521 52.5364 93.8592 52.6108 93.9423 52.7085C94.017 52.8064 94.0699 52.9192 94.0976 53.0393C94.1299 53.1793 94.1456 53.3227 94.1442 53.4664V54.7602H93.4965V53.5456C93.5085 53.3927 93.4795 53.2394 93.4126 53.1014C93.3773 53.0538 93.3298 53.0165 93.2752 52.9933C93.2206 52.9701 93.1608 52.9618 93.102 52.9694C93.0554 52.9694 93.0073 52.9694 92.9545 52.9772C92.9017 52.9849 92.8551 52.9865 92.8147 52.9911V54.7539H92.167L92.1717 52.5485Z" fill="#55A301"/>
<path d="M94.7139 51.8931L95.3616 51.7891V52.4631H96.1382V53.0036H95.3616V53.8081C95.3565 53.9219 95.3817 54.035 95.4346 54.1359C95.4677 54.1798 95.5119 54.2142 95.5626 54.2355C95.6134 54.2568 95.6689 54.2642 95.7235 54.257C95.7959 54.257 95.8682 54.2502 95.9394 54.2368C96.0083 54.2256 96.076 54.2073 96.1413 54.1824L96.2329 54.6888C96.148 54.7224 96.0608 54.7499 95.972 54.7711C95.8562 54.7962 95.7379 54.8076 95.6194 54.8053C95.4696 54.8103 95.3203 54.786 95.1799 54.7338C95.0714 54.6915 94.9753 54.6226 94.9003 54.5335C94.8282 54.4426 94.7783 54.3363 94.7543 54.2228C94.7266 54.0895 94.713 53.9536 94.7139 53.8175V51.8931Z" fill="#55A301"/>
<path d="M96.4721 53.6264C96.4679 53.4438 96.5002 53.2622 96.5668 53.0921C96.6224 52.9502 96.7058 52.8208 96.8122 52.7116C96.9118 52.6109 97.0314 52.5321 97.1632 52.4802C97.2928 52.4291 97.4308 52.4027 97.5701 52.4025C97.7133 52.3943 97.8566 52.4167 97.9905 52.4681C98.1244 52.5195 98.2458 52.5988 98.3467 52.7007C98.551 52.9456 98.6523 53.2602 98.6294 53.5783C98.6294 53.6155 98.6294 53.6575 98.6294 53.7025C98.6294 53.7476 98.6294 53.7864 98.6216 53.8221H97.1384C97.1452 53.8844 97.1656 53.9445 97.1981 53.9981C97.2305 54.0518 97.2743 54.0977 97.3263 54.1327C97.4588 54.221 97.6161 54.2646 97.7751 54.257C97.8924 54.2571 98.0094 54.2462 98.1246 54.2244C98.2211 54.2084 98.3155 54.1813 98.4057 54.1436L98.4927 54.6701C98.4485 54.6923 98.4022 54.71 98.3545 54.7229C98.2906 54.7415 98.2258 54.7565 98.1603 54.768C98.0889 54.7814 98.0128 54.7923 97.932 54.8006C97.8511 54.8098 97.7696 54.8145 97.6882 54.8146C97.5044 54.8182 97.3215 54.7871 97.1492 54.7229C97.0065 54.6684 96.8776 54.583 96.7718 54.4729C96.6697 54.3658 96.5937 54.2367 96.5497 54.0955C96.4987 53.9443 96.4724 53.7859 96.4721 53.6264ZM97.9972 53.3779C97.994 53.3251 97.984 53.2729 97.9677 53.2226C97.9526 53.1718 97.9278 53.1243 97.8947 53.0828C97.8593 53.0415 97.816 53.0077 97.7674 52.9834C97.7083 52.9553 97.6433 52.942 97.5779 52.9446C97.514 52.9436 97.4505 52.9557 97.3915 52.9803C97.3411 53.0031 97.2964 53.0371 97.2611 53.0797C97.225 53.1209 97.1975 53.169 97.1803 53.221C97.162 53.2716 97.148 53.3235 97.1384 53.3764L97.9972 53.3779Z" fill="#55A301"/>
<path d="M100.504 53.0378C100.447 53.0238 100.379 53.0083 100.301 52.9928C100.218 52.9755 100.133 52.9672 100.048 52.9679C99.999 52.969 99.9503 52.9726 99.9018 52.9788C99.8583 52.9838 99.8152 52.9921 99.7729 53.0036V54.754H99.1252V52.5796C99.2601 52.533 99.3975 52.4941 99.5368 52.4631C99.7103 52.4255 99.8874 52.4072 100.065 52.4088C100.101 52.4088 100.143 52.4088 100.191 52.4088C100.239 52.4088 100.29 52.4197 100.346 52.4274C100.402 52.4352 100.444 52.443 100.501 52.4523C100.544 52.4611 100.586 52.4736 100.627 52.4895L100.504 53.0378Z" fill="#55A301"/>
<path d="M85.5794 5.64404C85.5794 5.64404 81.5956 10.0565 80.8718 14.2903C80.1481 18.5242 83.3118 23.5098 88.6002 26.1734C88.6002 26.1734 93.2503 21.3587 91.8168 16.2457C90.3832 11.1328 85.3324 11.5832 85.5794 5.64404Z" fill="#55A301"/>
<path d="M88.768 24.9633C88.8492 24.0167 88.8528 23.0651 88.7788 22.118C88.7116 21.1851 88.5782 20.2581 88.3797 19.3441C88.3362 19.1158 88.2679 18.8906 88.2151 18.6638L88.1327 18.3237L88.0318 17.9882C87.965 17.763 87.8967 17.5393 87.833 17.3126C87.7693 17.0858 87.6777 16.8715 87.5985 16.6478L87.4851 16.3123C87.4462 16.2005 87.3965 16.0949 87.3546 15.9831C87.2661 15.7641 87.1807 15.5435 87.0952 15.3199C87.0098 15.0962 86.9042 14.8835 86.8141 14.6598C86.724 14.4362 86.6277 14.2172 86.5408 13.9873C86.6961 14.1706 86.8514 14.3601 87.0067 14.5511C87.0828 14.6458 87.1543 14.7452 87.2288 14.8415C87.3038 14.9378 87.3738 15.0379 87.4385 15.1413C87.5674 15.3463 87.6963 15.5544 87.8206 15.7625C87.8842 15.8666 87.9495 15.9707 88.0054 16.0732L88.1607 16.4024C88.2679 16.6214 88.3719 16.8435 88.4713 17.0656C88.5707 17.2877 88.6437 17.5316 88.7291 17.7552C88.7726 17.8701 88.813 17.9866 88.8518 18.1031L88.9528 18.4572C89.0134 18.6949 89.0864 18.9232 89.1345 19.1717C89.3474 20.1348 89.433 21.1217 89.3892 22.1071C89.3604 23.0894 89.1498 24.0578 88.768 24.9633Z" fill="white"/>
<path d="M114.159 22.3914C114.159 22.3914 111.738 29.6911 107.434 33.2074C103.13 36.7237 95.5028 36.3432 89.1318 32.0938C89.1318 32.0938 91.5765 23.7908 98.2487 22.1383C104.921 20.4857 107.633 26.456 114.159 22.3914Z" fill="#55A301"/>
<path d="M90.2822 31.1157C91.0588 30.1294 92.0699 29.3389 93.1415 28.6788L93.5469 28.4303C93.682 28.348 93.8249 28.275 93.9647 28.2066C94.2443 28.0622 94.5223 27.91 94.8158 27.7904C95.1094 27.6708 95.3951 27.5357 95.6918 27.4239L96.5895 27.1132C96.7371 27.0589 96.8924 27.0263 97.0446 26.9843L97.5105 26.8647L97.9765 26.7482C98.1318 26.7172 98.2871 26.6908 98.4424 26.6628C98.753 26.61 99.0637 26.5557 99.3743 26.5075C99.6849 26.4594 99.9955 26.4516 100.317 26.4283L100.783 26.3926C100.938 26.3926 101.094 26.3926 101.249 26.3926L102.19 26.4066C102.268 26.4066 102.345 26.4066 102.425 26.4159L102.659 26.4407C102.814 26.4578 102.97 26.4718 103.125 26.492C103.436 26.5293 103.746 26.5681 104.057 26.6162C103.746 26.6551 103.436 26.6815 103.125 26.7079C102.97 26.7218 102.814 26.7296 102.659 26.7405L102.429 26.7576C102.352 26.7576 102.274 26.7778 102.199 26.7871L101.283 26.9005C101.128 26.9222 100.972 26.93 100.826 26.9548L100.374 27.034C100.073 27.0879 99.7719 27.1396 99.4706 27.1893L98.5791 27.3912L98.1333 27.4875L97.6953 27.6133C97.4034 27.6972 97.1067 27.7687 96.8178 27.8618C95.6567 28.2241 94.5253 28.6754 93.4335 29.2115C92.3267 29.7479 91.2718 30.3853 90.2822 31.1157Z" fill="white"/>
</svg>
